<svg xmlns="http://www.w3.org/2000/svg" width="13.675" height="13.682" viewBox="0 0 13.675 13.682">
  <g id="fi-rr-time-forward" transform="translate(-0.011)">
    <path id="Path_26084" data-name="Path 26084" d="M13.116,6.271a.57.57,0,0,0-.57.57,5.72,5.72,0,1,1-1.653-4,.491.491,0,0,1-.057.012H9.126a.57.57,0,0,0,0,1.14h1.71a1.71,1.71,0,0,0,1.71-1.71V.57a.57.57,0,0,0-1.14,0V1.747a6.837,6.837,0,1,0,2.28,5.093A.57.57,0,0,0,13.116,6.271Z" transform="translate(0)" fill="#1e293b"/>
    <path id="Path_26085" data-name="Path 26085" d="M11.57,6a.57.57,0,0,0-.57.57V9.42a.57.57,0,0,0,.167.4l1.71,1.71a.57.57,0,1,0,.806-.806L12.14,9.184V6.57A.57.57,0,0,0,11.57,6Z" transform="translate(-4.725 -2.58)" fill="#1e293b"/>
  </g>
</svg>
