<svg xmlns="http://www.w3.org/2000/svg" width="16.411" height="16.411" viewBox="0 0 16.411 16.411">
  <g id="fi-rr-refresh" transform="translate(0.004 0.004)">
    <path id="Path_25994" data-name="Path 25994" d="M16.25,12a.671.671,0,0,0-.675.6A6.826,6.826,0,0,1,3.894,16.785H5.77a.684.684,0,1,0,0-1.367H3.036a1.367,1.367,0,0,0-1.367,1.367v2.734a.684.684,0,0,0,1.367,0V17.853a8.187,8.187,0,0,0,13.9-5.1A.688.688,0,0,0,16.25,12Z" transform="translate(-0.53 -3.799)" fill="#0d98ba"/>
    <path id="Path_25995" data-name="Path 25995" d="M14.579,0A.684.684,0,0,0,13.9.682V2.349A8.187,8.187,0,0,0,0,7.449.688.688,0,0,0,.682,8.2a.671.671,0,0,0,.675-.6A6.826,6.826,0,0,1,13.038,3.416H11.162a.684.684,0,1,0,0,1.367H13.9a1.367,1.367,0,0,0,1.367-1.367V.682A.684.684,0,0,0,14.579,0Z" transform="translate(0 0)" fill="#0d98ba"/>
  </g>
</svg>
