<?xml version="1.0" standalone="no"?>
<!DOCTYPE svg PUBLIC "-//W3C//DTD SVG 20010904//EN"
 "http://www.w3.org/TR/2001/REC-SVG-20010904/DTD/svg10.dtd">
<svg version="1.0" xmlns="http://www.w3.org/2000/svg"
 width="173.000000pt" height="173.000000pt" viewBox="0 0 173.000000 173.000000"
 preserveAspectRatio="xMidYMid meet">
<metadata>
Created by potrace 1.14, written by Peter Selinger 2001-2017
</metadata>
<g transform="translate(0.000000,173.000000) scale(0.100000,-0.100000)"
fill="#000000" stroke="none">
<path d="M635 1499 c-5 -5 -25 -23 -44 -39 -35 -32 -35 -33 -16 -126 6 -28 5
-30 -22 -30 -27 1 -28 -1 -28 -44 0 -41 2 -45 26 -48 l25 -3 -3 -167 c-3 -153
-2 -164 11 -129 45 122 142 194 271 202 118 6 245 -85 276 -199 14 -50 19
-156 7 -156 -4 0 -8 11 -8 23 0 27 -36 137 -49 150 -5 5 -12 0 -16 -12 -7 -23
-21 -28 -28 -8 -3 8 -9 6 -19 -7 -13 -16 -13 -23 -2 -45 7 -14 16 -38 19 -52
6 -24 4 -26 -22 -24 -15 1 -40 6 -55 10 -23 6 -27 11 -22 30 3 13 1 33 -5 44
-13 24 -80 61 -110 61 -20 0 -51 -44 -51 -73 0 -16 54 -61 92 -77 21 -9 20
-10 -6 -5 -28 6 -64 29 -140 89 -32 25 -39 27 -51 15 -8 -8 -17 -28 -21 -45
-5 -27 0 -35 51 -79 l58 -49 -23 -18 c-28 -23 -68 -23 -100 -1 -33 22 -38 31
-51 81 -16 59 -28 53 -24 -13 6 -92 35 -125 113 -125 33 0 92 44 92 69 0 7 5
11 12 9 7 -3 12 -18 13 -34 0 -19 5 -28 13 -26 10 2 11 -4 6 -20 -12 -36 -7
-55 21 -92 24 -31 24 -35 10 -50 -13 -13 -32 -15 -95 -12 -70 3 -82 1 -114
-20 -20 -14 -36 -29 -36 -34 0 -4 -3 -17 -7 -27 -5 -14 1 -11 26 9 18 16 42
28 54 29 33 1 107 -2 127 -6 21 -4 63 23 55 35 -3 5 -1 11 5 15 18 11 10 70
-15 107 -24 36 -25 37 -6 48 30 15 92 12 152 -9 64 -21 91 -14 110 31 6 16 14
27 16 24 3 -2 -1 -14 -7 -26 -6 -12 -9 -24 -7 -27 3 -3 14 18 24 46 10 28 20
51 23 51 8 0 6 -188 -2 -196 -7 -7 -50 14 -60 30 -10 16 -20 1 -20 -30 0 -15
-9 -37 -20 -48 l-19 -20 3 24 c4 38 -40 39 -80 3 -34 -29 -40 -51 -20 -71 20
-20 -1 -26 -22 -7 -26 23 -25 50 1 76 34 34 36 80 4 118 -40 47 -65 7 -34 -54
18 -35 15 -59 -13 -98 -27 -38 -20 -69 21 -89 25 -13 39 -14 56 -6 27 12 50
51 42 72 -3 8 0 19 7 25 16 13 27 4 19 -15 -3 -8 3 -16 13 -20 11 -3 27 -10
36 -15 24 -12 72 -11 102 2 49 23 55 56 50 269 -2 107 -9 212 -15 234 -27 100
-87 170 -186 217 -35 17 -63 35 -63 42 0 7 -15 28 -33 48 l-33 36 -29 -35
c-17 -19 -34 -42 -39 -51 -25 -44 -54 -41 -53 7 2 32 5 37 27 37 23 0 25 4 25
50 0 45 -2 50 -23 51 -33 2 -35 7 -22 54 16 59 7 83 -42 119 -43 32 -65 37
-83 20z m73 -50 c35 -33 37 -41 20 -90 -14 -43 -17 -45 -71 -41 -43 4 -45 5
-57 47 -14 50 -7 67 36 95 38 24 34 25 72 -11z m65 -178 c20 -3 4 -30 -20 -33
-27 -3 -28 -5 -28 -61 0 -54 -2 -59 -35 -85 -19 -15 -47 -40 -62 -56 l-27 -29
2 114 2 114 -27 3 c-25 3 -37 20 -24 33 4 4 194 4 219 0z m75 -395 c34 -17 66
-52 55 -59 -10 -6 -85 43 -91 61 -5 16 3 15 36 -2z m241 -70 c23 -75 27 -112
6 -56 -7 19 -17 34 -22 33 -5 -1 -10 13 -10 30 0 18 -4 43 -8 57 -5 17 -4 22
3 15 5 -5 20 -41 31 -79z m-31 -42 c-4 -3 2 -24 12 -46 17 -39 17 -68 0 -68
-4 0 -5 11 -3 24 6 29 -10 41 -27 21 -10 -12 -10 -18 0 -30 16 -19 4 -19 -47
-1 -22 8 -53 15 -69 17 -40 4 -94 -10 -94 -24 -1 -23 -22 25 -24 53 -2 26 0
28 31 23 23 -4 39 -1 52 11 16 15 24 15 65 4 41 -11 51 -10 74 4 29 17 39 21
30 12z m-270 -22 c6 -18 -15 -14 -22 4 -4 10 -1 14 6 12 6 -2 14 -10 16 -16z
m298 -274 c-10 -6 -20 -7 -24 -3 -9 8 20 25 31 18 5 -3 2 -10 -7 -15z m68 6
c23 -9 20 -23 -6 -33 -28 -11 -43 -4 -29 13 6 7 8 16 4 19 -8 9 10 9 31 1z"/>
<path d="M918 1435 c-20 -7 -39 -11 -41 -8 -3 2 -5 -35 -5 -84 0 -48 2 -81 4
-73 3 8 22 21 44 28 52 16 61 15 53 -5 -5 -14 -2 -15 23 -10 95 22 119 32 120
52 1 11 3 25 4 30 1 6 2 22 1 38 -1 25 -4 27 -42 27 -22 0 -49 -5 -61 -11 -16
-9 -24 -7 -39 10 -11 12 -21 21 -22 20 -1 0 -18 -6 -39 -14z"/>
<path d="M638 738 c-7 -19 2 -38 19 -38 9 0 13 8 11 22 -3 25 -23 35 -30 16z"/>
<path d="M894 309 c-5 -8 -7 -22 -6 -31 2 -10 -2 -18 -8 -18 -8 0 -8 -6 0 -20
6 -11 16 -17 25 -14 11 4 12 11 5 23 -6 12 -5 22 2 29 6 6 7 16 0 27 -7 14
-11 15 -18 4z"/>
</g>
</svg>
